<svg data-bbox="0 0 25 25" viewBox="0 0 25 25" height="25" width="25" xmlns="http://www.w3.org/2000/svg" data-type="ugc">
    <g>
        <path stroke-width="1.5" stroke-linecap="round" stroke="#282830" fill="none" d="m7.781 6.137 2.752 3.277-3.9 2.749"></path>
        <path fill="#282830" d="M17 9c0 2.21-.672 4-1.5 4S14 11.21 14 9s.672-4 1.5-4S17 6.79 17 9"></path>
        <path stroke-width="1.5" stroke-linecap="round" stroke="#282830" fill="none" d="M5.6 15.322s1.626 5.926 7.6 5.242 5.558-7.118 5.558-7.118"></path>
        <g>
            <path d="M12.5 0A12.5 12.5 0 1 1 0 12.5 12.5 12.5 0 0 1 12.5 0" fill="none"></path>
            <path fill="#282830" d="M12.5 1.5c-2.938 0-5.7 1.144-7.778 3.222A10.93 10.93 0 0 0 1.5 12.5c0 2.938 1.144 5.7 3.222 7.778A10.93 10.93 0 0 0 12.5 23.5c2.938 0 5.7-1.144 7.778-3.222A10.93 10.93 0 0 0 23.5 12.5c0-2.938-1.144-5.7-3.222-7.778A10.93 10.93 0 0 0 12.5 1.5m0-1.5C19.404 0 25 5.596 25 12.5S19.404 25 12.5 25 0 19.404 0 12.5 5.596 0 12.5 0"></path>
        </g>
    </g>
</svg>